<?xml version="1.0" standalone="no"?>
<!DOCTYPE svg PUBLIC "-//W3C//DTD SVG 20010904//EN"
 "http://www.w3.org/TR/2001/REC-SVG-20010904/DTD/svg10.dtd">
<svg version="1.0" xmlns="http://www.w3.org/2000/svg"
 width="1024.000000pt" height="1024.000000pt" viewBox="0 0 1024.000000 1024.000000"
 preserveAspectRatio="xMidYMid meet">
<metadata>
Created by potrace 1.16, written by Peter Selinger 2001-2019
</metadata>
<g transform="translate(0.000000,1024.000000) scale(0.100000,-0.100000)"
fill="#000000" stroke="none">
<path d="M1195 9923 c-104 -8 -263 -24 -292 -29 l-31 -6 29 -111 c184 -693
437 -1339 652 -1665 189 -288 370 -385 855 -457 196 -29 277 -51 345 -95 52
-33 102 -102 118 -165 17 -69 21 -72 31 -30 17 71 3 339 -21 430 -46 165 -144
328 -276 454 l-67 64 34 33 c18 17 196 174 396 347 l363 315 32 -13 c296 -122
381 -155 389 -153 13 5 -81 147 -159 240 -213 256 -565 510 -907 653 -232 97
-501 157 -831 185 -109 9 -561 11 -660 3z m1200 -287 c249 -61 425 -144 598
-284 65 -52 167 -169 167 -190 0 -12 -609 -486 -616 -479 -2 2 7 31 20 63 73
180 73 399 1 568 -44 104 -144 225 -249 303 -68 51 -60 53 79 19z m-860 -77
c211 -26 349 -82 438 -179 58 -63 85 -124 106 -244 14 -75 14 -313 1 -431 -20
-175 -79 -493 -111 -593 l-11 -32 -45 32 c-67 48 -185 177 -247 272 -79 118
-164 303 -241 521 -88 250 -176 466 -263 647 -9 18 242 23 373 7z"/>
<path d="M8370 9920 c-427 -40 -737 -127 -1035 -291 -284 -157 -515 -341 -691
-551 -70 -84 -161 -225 -151 -234 4 -4 90 30 384 151 l32 13 363 -315 c200
-173 378 -329 396 -347 l32 -31 -84 -86 c-130 -132 -211 -270 -257 -435 -24
-89 -38 -358 -21 -429 10 -41 12 -39 31 30 17 63 66 132 118 165 68 44 149 66
345 95 384 57 559 125 709 274 229 228 487 792 719 1571 47 160 110 390 107
390 -1 0 -56 7 -122 16 -142 18 -728 27 -875 14z m-446 -303 c-73 -55 -152
-137 -197 -209 -70 -109 -97 -193 -104 -328 -6 -120 11 -232 53 -334 13 -32
22 -61 20 -63 -7 -7 -616 467 -616 479 0 21 102 138 167 190 171 138 328 214
578 279 158 41 170 39 99 -14z m1150 -57 c3 -3 -12 -42 -33 -85 -56 -118 -150
-355 -226 -570 -77 -218 -162 -403 -241 -521 -62 -95 -180 -224 -247 -272
l-45 -32 -11 32 c-17 52 -70 310 -92 448 -26 158 -36 468 -20 566 22 128 48
190 108 254 86 94 227 152 428 179 73 10 369 10 379 1z"/>
<path d="M4894 9439 c-40 -11 -109 -86 -135 -146 -11 -25 -35 -109 -55 -186
-77 -305 -142 -411 -302 -485 -51 -24 -68 -27 -167 -27 -82 1 -132 6 -195 23
-125 34 -319 114 -463 191 l-126 68 -346 -290 c-300 -254 -343 -293 -332 -308
6 -9 29 -38 49 -65 184 -241 245 -664 154 -1064 -122 -541 -146 -719 -111
-837 29 -96 136 -161 296 -179 l64 -7 -55 51 c-99 89 -144 204 -143 362 0 79
8 127 46 280 77 311 107 525 107 774 0 237 -26 379 -88 477 -81 127 -57 225
63 259 55 15 110 3 163 -37 53 -40 131 -71 242 -95 92 -19 134 -22 335 -23
206 0 241 2 335 23 179 41 312 97 420 179 l45 34 96 327 c71 244 100 328 112
330 18 4 18 -3 -4 -248 -13 -143 -68 -472 -109 -647 -16 -72 -30 -134 -30
-137 0 -3 -30 -21 -68 -40 -145 -73 -256 -180 -347 -336 -24 -41 -82 -158
-129 -259 -111 -239 -178 -365 -274 -514 -212 -330 -339 -595 -359 -747 l-6
-45 32 60 c74 138 149 200 385 321 94 48 182 96 195 108 61 55 96 137 157 371
102 391 167 530 311 666 32 30 92 77 133 104 142 93 276 252 311 371 7 24 16
44 19 44 3 0 12 -20 19 -44 35 -119 169 -278 311 -371 236 -154 322 -303 444
-770 61 -234 96 -316 157 -371 13 -12 101 -60 195 -108 236 -121 311 -183 385
-321 l32 -60 -6 45 c-21 159 -149 420 -401 815 -65 102 -135 237 -243 470
-157 339 -263 469 -465 571 -38 19 -68 37 -68 40 0 3 -14 65 -30 137 -41 175
-96 504 -109 647 -22 245 -22 252 -4 248 12 -2 41 -86 112 -330 l96 -327 45
-34 c108 -82 241 -138 420 -179 94 -21 129 -23 335 -23 200 1 243 4 333 23
110 24 192 56 244 95 52 39 110 53 160 38 58 -18 84 -37 102 -76 24 -51 20
-77 -30 -171 -69 -132 -85 -205 -91 -426 -8 -278 19 -497 104 -838 38 -153 46
-201 46 -280 1 -158 -44 -273 -143 -362 l-55 -51 64 7 c159 18 264 81 298 179
13 39 17 76 15 147 -2 95 -10 141 -97 540 -77 357 -91 525 -59 738 26 180 97
365 182 476 20 27 43 56 49 65 11 15 -32 54 -333 307 l-345 291 -126 -68
c-255 -137 -486 -213 -643 -213 -163 0 -265 47 -346 156 -53 73 -93 173 -138
355 -20 77 -44 161 -55 186 -28 65 -95 135 -140 146 -45 12 -405 11 -447 0z"/>
<path d="M4424 8169 c-139 -23 -309 -94 -497 -206 -65 -40 -140 -77 -168 -83
-133 -32 -302 42 -484 211 l-79 74 25 -45 c15 -25 68 -121 120 -215 136 -246
218 -323 392 -368 33 -9 62 -19 65 -22 4 -4 -18 -28 -48 -53 -138 -116 -240
-245 -374 -475 -67 -114 -241 -466 -234 -473 9 -8 157 97 282 202 287 240 481
497 590 780 92 242 225 422 403 545 78 53 212 118 248 120 l20 0 -20 9 c-25
11 -174 10 -241 -1z"/>
<path d="M5575 8171 l-20 -10 20 0 c36 -2 170 -67 248 -120 178 -123 311 -303
403 -545 87 -225 217 -419 419 -622 149 -150 435 -378 452 -361 7 8 -162 353
-233 474 -134 230 -236 359 -374 475 -30 25 -52 49 -48 53 3 3 32 13 65 22
174 45 255 121 392 368 52 94 105 190 120 215 l25 45 -79 -74 c-182 -169 -351
-243 -484 -211 -28 6 -108 46 -183 91 -237 141 -401 198 -588 205 -63 2 -124
0 -135 -5z"/>
<path d="M4950 7648 c-179 -258 -342 -545 -440 -775 -34 -81 -78 -173 -98
-203 -47 -73 -134 -163 -272 -280 -241 -204 -291 -277 -292 -425 0 -169 72
-331 332 -740 167 -263 188 -300 253 -430 58 -117 96 -215 122 -315 17 -64
102 -612 176 -1124 32 -220 45 -291 51 -270 36 134 54 614 30 779 -7 44 -33
176 -57 294 -38 181 -45 230 -45 327 0 135 -18 232 -67 364 -40 106 -127 285
-197 403 -88 149 -126 260 -133 392 -9 181 37 305 202 535 53 74 107 153 120
175 13 22 64 193 114 380 50 187 133 492 184 678 51 185 92 337 91 337 -2 0
-35 -46 -74 -102z"/>
<path d="M5307 7412 c51 -185 134 -490 184 -677 57 -213 100 -357 117 -385 14
-25 60 -92 102 -150 97 -135 133 -192 163 -260 95 -216 70 -436 -79 -687 -70
-118 -157 -297 -197 -403 -49 -132 -67 -229 -67 -364 0 -98 -7 -146 -44 -324
-25 -114 -50 -246 -57 -292 -17 -119 -15 -456 5 -620 26 -215 29 -217 55 -34
36 256 149 1012 171 1140 25 148 74 292 146 437 66 132 87 169 254 432 260
409 332 572 332 740 -1 149 -51 221 -292 425 -220 186 -273 254 -364 469 -70
163 -104 232 -202 403 -73 127 -296 472 -312 482 -5 3 34 -147 85 -332z"/>
<path d="M5106 7525 c-31 -452 -216 -990 -519 -1518 -115 -199 -131 -242 -125
-335 4 -86 40 -161 140 -299 234 -322 254 -389 268 -903 8 -304 11 -346 34
-445 44 -194 148 -801 197 -1157 7 -49 15 -88 18 -88 4 0 28 143 55 318 60
397 118 727 157 902 29 129 31 150 39 470 14 514 34 581 268 903 100 138 136
213 140 299 6 93 -10 136 -125 335 -304 529 -487 1065 -519 1518 -4 52 -10 95
-14 95 -4 0 -10 -43 -14 -95z"/>
<path d="M2755 6267 c28 -95 52 -125 138 -181 133 -86 187 -155 253 -326 49
-129 75 -177 123 -231 91 -103 203 -149 365 -149 107 0 216 16 216 32 0 5 -20
70 -45 144 -83 249 -164 378 -271 430 -48 23 -72 28 -197 34 -226 12 -332 59
-535 238 l-60 52 13 -43z"/>
<path d="M7420 6243 c-182 -162 -295 -210 -517 -223 -125 -6 -149 -11 -197
-34 -107 -52 -188 -181 -271 -430 -25 -74 -45 -139 -45 -144 0 -16 109 -32
216 -32 162 0 274 46 365 149 48 54 74 102 123 231 66 171 106 223 235 306 90
59 111 79 135 129 12 25 38 116 32 115 0 0 -35 -31 -76 -67z"/>
<path d="M2908 5762 c-113 -115 -177 -200 -228 -302 -53 -106 -72 -171 -73
-248 -1 -85 8 -110 95 -273 53 -101 89 -153 141 -209 239 -256 389 -551 412
-811 21 -235 127 -544 251 -736 94 -146 167 -253 170 -251 1 2 -19 66 -47 143
-145 410 -226 704 -239 870 -11 146 -36 237 -163 600 -102 292 -129 386 -151
540 -19 125 -43 389 -55 604 -6 90 -12 165 -14 167 -2 2 -46 -40 -99 -94z"/>
<path d="M7226 5799 c-3 -35 -8 -113 -11 -174 -8 -155 -33 -422 -51 -540 -22
-154 -49 -248 -151 -540 -127 -363 -152 -454 -163 -600 -13 -166 -84 -423
-230 -841 -32 -93 -57 -170 -55 -172 7 -7 92 116 155 224 152 259 234 491 260
729 14 130 32 204 76 322 62 164 189 359 341 523 52 56 88 109 141 209 85 160
95 186 95 266 0 165 -116 376 -316 574 l-85 84 -6 -64z"/>
<path d="M3451 5343 c-47 -24 -87 -92 -108 -182 -22 -96 -23 -337 -3 -506 l14
-120 7 130 c11 193 49 299 129 353 30 20 44 23 95 19 185 -14 427 -243 599
-567 156 -294 276 -749 276 -1047 0 -48 2 -84 4 -82 8 9 26 191 36 376 24 416
-24 764 -135 988 -104 211 -394 492 -624 603 -83 41 -102 46 -175 49 -62 3
-89 0 -115 -14z"/>
<path d="M6585 5346 c-231 -74 -590 -398 -710 -641 -130 -263 -171 -679 -119
-1210 8 -82 17 -151 19 -154 3 -2 5 34 5 82 0 298 120 753 276 1047 172 324
414 553 599 567 51 4 65 1 95 -19 80 -54 118 -160 129 -353 l7 -130 14 120
c20 169 19 410 -3 506 -21 92 -62 159 -110 182 -42 20 -143 22 -202 3z"/>
<path d="M3546 4789 c-74 -58 -113 -433 -86 -823 7 -102 16 -186 19 -186 4 0
13 16 20 35 20 58 96 149 256 308 172 173 226 237 250 302 17 44 17 45 -8 97
-49 100 -187 229 -291 272 -55 23 -127 21 -160 -5z"/>
<path d="M6530 4793 c-102 -44 -239 -173 -287 -271 -25 -52 -25 -53 -8 -97 24
-65 78 -129 251 -303 160 -160 235 -249 255 -307 7 -19 16 -35 20 -35 3 0 12
84 19 186 27 390 -12 765 -86 823 -32 25 -111 27 -164 4z"/>
<path d="M3988 4037 c-118 -45 -221 -147 -296 -295 -48 -94 -92 -205 -106
-267 l-6 -30 28 34 29 34 6 -104 c6 -116 35 -261 47 -238 4 8 10 33 14 57 11
70 46 133 111 197 93 93 209 142 450 192 37 7 41 11 58 62 54 163 22 287 -87
343 -52 27 -193 35 -248 15z"/>
<path d="M6055 4041 c-148 -39 -200 -174 -138 -362 17 -51 21 -55 58 -62 241
-50 357 -99 450 -192 65 -64 100 -127 111 -197 4 -24 10 -49 14 -57 12 -23 41
122 47 238 l6 104 29 -34 28 -34 -6 30 c-31 137 -133 340 -219 433 -90 97
-164 135 -270 138 -44 2 -93 0 -110 -5z"/>
<path d="M4125 3413 c-151 -32 -270 -115 -325 -227 -18 -35 -34 -81 -37 -102
l-5 -39 69 -18 c105 -27 270 -97 358 -152 99 -60 194 -155 227 -225 l25 -53 7
102 c18 252 -34 525 -133 687 -25 42 -28 44 -71 43 -25 0 -76 -7 -115 -16z"/>
<path d="M5923 3378 c-93 -157 -143 -423 -127 -672 l6 -109 26 53 c70 147 301
298 571 372 l83 23 -5 39 c-15 109 -111 228 -231 285 -65 31 -190 61 -253 61
-36 0 -41 -4 -70 -52z"/>
<path d="M4580 3195 c0 -6 5 -26 10 -45 42 -143 54 -427 25 -579 -43 -222
-106 -352 -306 -631 -163 -227 -214 -323 -230 -428 -23 -153 43 -346 234 -684
176 -311 313 -449 495 -499 98 -28 526 -28 624 0 181 50 320 189 495 499 203
359 269 567 228 722 -24 95 -69 172 -225 390 -199 280 -262 410 -305 631 -29
152 -17 436 25 579 19 67 9 54 -53 -65 -100 -191 -182 -318 -360 -557 -60 -82
-112 -148 -117 -148 -5 0 -57 66 -117 148 -178 239 -260 366 -360 557 -34 66
-63 115 -63 110z"/>
<path d="M3730 2844 c0 -16 5 -90 10 -164 36 -487 146 -730 330 -730 123 0
272 151 324 329 56 189 -47 348 -309 479 -83 41 -245 97 -315 108 -39 6 -40 6
-40 -22z"/>
<path d="M6445 2863 c-77 -19 -223 -72 -290 -105 -262 -131 -365 -290 -309
-479 38 -128 139 -261 235 -307 53 -26 136 -29 177 -8 91 48 164 186 207 396
21 101 45 326 45 428 0 89 -1 90 -65 75z"/>
</g>
</svg>
